<svg xmlns="http://www.w3.org/2000/svg" width="20" height="20" viewBox="0 0 20 20" fill="none">
  <path d="M14.7583 8.23348L11.1749 4.65848C10.8627 4.34806 10.4402 4.17383 9.99993 4.17383C9.55962 4.17383 9.1372 4.34806 8.82493 4.65848L5.24159 8.23348C5.08639 8.38962 4.99927 8.60083 4.99927 8.82098C4.99927 9.04114 5.08639 9.25235 5.24159 9.40848C5.31906 9.48659 5.41123 9.54858 5.51278 9.59089C5.61433 9.6332 5.72325 9.65498 5.83326 9.65498C5.94327 9.65498 6.05219 9.6332 6.15374 9.59089C6.25529 9.54858 6.34746 9.48659 6.42493 9.40848L9.16659 6.66682V15.8335C9.16659 16.0545 9.25439 16.2665 9.41067 16.4227C9.56695 16.579 9.77891 16.6668 9.99993 16.6668C10.2209 16.6668 10.4329 16.579 10.5892 16.4227C10.7455 16.2665 10.8333 16.0545 10.8333 15.8335V6.66682L13.5749 9.40848C13.7307 9.5654 13.9425 9.654 14.1636 9.65478C14.3848 9.65556 14.5972 9.56846 14.7541 9.41265C14.911 9.25683 14.9996 9.04507 15.0004 8.82393C15.0012 8.60279 14.9141 8.3904 14.7583 8.23348Z" fill="#53FC18"/>
</svg>