<svg width="49" height="48" viewBox="0 0 49 48" fill="none" xmlns="http://www.w3.org/2000/svg">
<g id="Group 137">
<g id="Group 136">
<rect id="Rectangle 501" x="0.441895" width="48" height="48" rx="8.32639" fill="#1B1F20"/>
<g id="Icon/wallet-3">
<path id="Vector" d="M34.0014 24.6201V26.6801C34.0014 27.2401 33.5414 27.7001 32.9714 27.7001H31.0414C29.9614 27.7001 28.9714 26.9101 28.8814 25.8301C28.8214 25.2001 29.0614 24.6101 29.4814 24.2001C29.8514 23.8201 30.3614 23.6001 30.9214 23.6001H32.9714C33.5414 23.6001 34.0014 24.0601 34.0014 24.6201Z" fill="#53FC18"/>
<path id="Vector_2" d="M27.3814 25.9599C27.2914 24.9099 27.6714 23.8799 28.4314 23.1299C29.0714 22.4799 29.9614 22.0999 30.9214 22.0999H31.4914C31.7714 22.0999 32.0014 21.8699 31.9614 21.5899C31.6914 19.6499 30.0114 18.1499 28.0014 18.1499H18.0014C15.7914 18.1499 14.0014 19.9399 14.0014 22.1499V29.1499C14.0014 31.3599 15.7914 33.1499 18.0014 33.1499H28.0014C30.0214 33.1499 31.6914 31.6499 31.9614 29.7099C32.0014 29.4299 31.7714 29.1999 31.4914 29.1999H31.0414C29.1414 29.1999 27.5414 27.7799 27.3814 25.9599ZM25.0014 23.8999H19.0014C18.5914 23.8999 18.2514 23.5699 18.2514 23.1499C18.2514 22.7299 18.5914 22.3999 19.0014 22.3999H25.0014C25.4114 22.3999 25.7514 22.7399 25.7514 23.1499C25.7514 23.5599 25.4114 23.8999 25.0014 23.8999Z" fill="#53FC18"/>
<path id="Vector_3" d="M26.2114 15.9801C26.4714 16.2501 26.2414 16.6501 25.8614 16.6501H18.0314C16.9414 16.6501 15.9214 16.9701 15.0714 17.5201C14.6814 17.7701 14.1514 17.5001 14.3414 17.0701C14.9014 15.7601 16.2114 14.8501 17.7214 14.8501H23.3414C24.5014 14.8501 25.5314 15.2601 26.2114 15.9801Z" fill="#53FC18"/>
</g>
</g>
</g>
</svg>
