<svg width="23" height="24" viewBox="0 0 23 24" fill="none" xmlns="http://www.w3.org/2000/svg">
<g id="8665033_bank_icon 1" clip-path="url(#clip0_4001_51)">
<path id="Vector" d="M10.4094 0.121271C10.7844 -0.0404238 11.2156 -0.0404238 11.5906 0.121271L22.0906 4.62141C22.7469 4.90313 23.1125 5.60626 22.9672 6.30001C22.8266 6.99844 22.2125 7.45782 21.4578 7.50001V7.87501C21.4578 8.49844 20.9984 9.00001 20.3328 9.00001H1.58281C1.00344 9.00001 0.457813 8.49844 0.457813 7.87501V7.50001C-0.212031 7.45782 -0.826187 6.99844 -0.9694 6.30001C-1.11259 5.60626 -0.745515 4.90313 -0.0910934 4.62141L10.4094 0.121271ZM11 6.00001C11.8297 6.00001 12.5 5.32969 12.5 4.50001C12.5 3.67172 11.8297 3.00001 11 3.00001C10.1703 3.00001 9.5 3.67172 9.5 4.50001C9.5 5.32969 10.1703 6.00001 11 6.00001ZM4.95781 19.5H6.83281V10.5H9.83281V19.5H12.125V10.5H15.125V19.5H17V10.5H20V19.7016C20.0281 19.7156 20.0562 19.6922 20.0844 19.7531L22.3344 21.2531C22.8828 21.6188 23.1266 22.3031 22.9344 22.9359C22.7422 23.5688 22.1609 24 21.5 24H0.457813C-0.160937 24 -0.744156 23.5688 -0.935687 22.9359C-1.12727 22.3031 -0.882109 21.6188 -0.332031 21.2531L1.91797 19.7531C1.94469 19.6922 1.97234 19.7156 1.95781 19.7016V10.5H4.95781V19.5Z" fill="#EA4335"/>
</g>
<defs>
<clipPath id="clip0_4001_51">
<rect width="24" height="24" fill="white" transform="translate(-1)"/>
</clipPath>
</defs>
</svg>
