<svg xmlns="http://www.w3.org/2000/svg" width="30" height="32" viewBox="0 0 30 32" fill="none">
  <path d="M15.0648 7.84827V27.3865" stroke="#53FC18" stroke-width="1.5"/>
  <path d="M6.36145 11.9066L11.3348 13.1966" stroke="#53FC18" stroke-width="1.5" stroke-linecap="round"/>
  <path d="M6.36145 17.0667L11.3348 18.3567" stroke="#53FC18" stroke-width="1.5" stroke-linecap="round"/>
  <path d="M23.7681 17.0667L18.7948 18.3567" stroke="#53FC18" stroke-width="1.5" stroke-linecap="round"/>
  <path d="M23.7681 7.3916V12.5649C23.7681 12.9204 23.7681 13.0981 23.6502 13.17C23.5322 13.2418 23.3709 13.1623 23.0484 13.0033L21.5039 12.2421C21.3947 12.1884 21.3401 12.1615 21.2814 12.1615C21.2227 12.1615 21.1682 12.1884 21.059 12.2421L19.5145 13.0033C19.1919 13.1623 19.0306 13.2418 18.9127 13.17C18.7948 13.0981 18.7948 12.9204 18.7948 12.5649V9.26213" stroke="#53FC18" stroke-width="1.5" stroke-linecap="round"/>
  <path d="M25.1134 4.18947L25.1404 4.93898L25.1134 4.18947ZM20.6598 4.79537L20.4373 4.07913V4.07913L20.6598 4.79537ZM17.1459 6.49212L16.7598 5.84914V5.84914L17.1459 6.49212ZM5.09623 4.26318L5.0485 5.01166L5.09623 4.26318ZM8.84811 4.79537L9.04616 4.072V4.072L8.84811 4.79537ZM12.929 6.58591L12.5683 7.24346L12.929 6.58591ZM17.0884 26.1859L17.4514 26.8422L17.0884 26.1859ZM21.2814 24.3336L21.0834 23.6102L21.2814 24.3336ZM24.993 23.804L25.0415 24.5524L24.993 23.804ZM13.0411 26.1859L12.6782 26.8422L13.0411 26.1859ZM8.84811 24.3336L9.04616 23.6102H9.04616L8.84811 24.3336ZM5.13658 23.804L5.08801 24.5524L5.13658 23.804ZM28.2481 13.8911C28.2481 13.4769 27.9123 13.1411 27.4981 13.1411C27.0839 13.1411 26.7481 13.4769 26.7481 13.8911H28.2481ZM26.7481 9.32657C26.7481 9.74079 27.0839 10.0766 27.4981 10.0766C27.9123 10.0766 28.2481 9.74079 28.2481 9.32657H26.7481ZM1.88144 13.9328C1.88144 14.347 2.21723 14.6828 2.63144 14.6828C3.04565 14.6828 3.38144 14.347 3.38144 13.9328H1.88144ZM3.38144 18.3566C3.38144 17.9424 3.04565 17.6066 2.63144 17.6066C2.21723 17.6066 1.88144 17.9424 1.88144 18.3566H3.38144ZM25.0863 3.43996C23.6728 3.49104 21.8398 3.64352 20.4373 4.07913L20.8822 5.51162C22.0831 5.13862 23.7475 4.98932 25.1404 4.93898L25.0863 3.43996ZM20.4373 4.07913C19.2193 4.45746 17.8417 5.19951 16.7598 5.84914L17.532 7.13511C18.5923 6.49843 19.8433 5.83432 20.8822 5.51162L20.4373 4.07913ZM5.0485 5.01166C6.25158 5.08837 7.62451 5.23797 8.65006 5.51875L9.04616 4.072C7.86725 3.74923 6.36878 3.5928 5.14395 3.5147L5.0485 5.01166ZM8.65006 5.51875C9.86515 5.85143 11.3513 6.5758 12.5683 7.24346L13.2898 5.92837C12.0545 5.25069 10.4401 4.45364 9.04616 4.072L8.65006 5.51875ZM17.4514 26.8422C18.6858 26.1595 20.2262 25.4001 21.4795 25.057L21.0834 23.6102C19.6475 24.0033 17.9763 24.8377 16.7254 25.5296L17.4514 26.8422ZM21.4795 25.057C22.4934 24.7794 23.8474 24.6299 25.0415 24.5524L24.9444 23.0556C23.7279 23.1345 22.2495 23.291 21.0834 23.6102L21.4795 25.057ZM13.4041 25.5296C12.1532 24.8377 10.482 24.0033 9.04616 23.6102L8.65006 25.057C9.9034 25.4001 11.4437 26.1595 12.6782 26.8422L13.4041 25.5296ZM9.04616 23.6102C7.88003 23.291 6.40162 23.1345 5.18515 23.0556L5.08801 24.5524C6.28217 24.6299 7.63611 24.7794 8.65006 25.057L9.04616 23.6102ZM26.7481 21.1218C26.7481 22.1537 25.9344 22.9913 24.9444 23.0556L25.0415 24.5524C26.8088 24.4377 28.2481 22.9562 28.2481 21.1218H26.7481ZM28.2481 6.66039C28.2481 4.91403 26.9028 3.3743 25.0863 3.43996L25.1404 4.93898C25.9891 4.90831 26.7481 5.63984 26.7481 6.66039H28.2481ZM1.88144 21.1218C1.88144 22.9562 3.32074 24.4377 5.08801 24.5524L5.18515 23.0556C4.19517 22.9913 3.38144 22.1537 3.38144 21.1218H1.88144ZM16.7254 25.5296C15.692 26.1011 14.4375 26.1011 13.4041 25.5296L12.6782 26.8422C14.1633 27.6636 15.9663 27.6636 17.4514 26.8422L16.7254 25.5296ZM16.7598 5.84914C15.6937 6.4893 14.3707 6.52138 13.2898 5.92837L12.5683 7.24346C14.1246 8.09726 16.0162 8.04531 17.532 7.13511L16.7598 5.84914ZM3.38144 6.74374C3.38144 5.69931 4.17617 4.95603 5.0485 5.01166L5.14395 3.5147C3.29064 3.39652 1.88144 4.95489 1.88144 6.74374H3.38144ZM28.2481 21.1218V13.8911H26.7481V21.1218H28.2481ZM28.2481 9.32657V6.66039H26.7481V9.32657H28.2481ZM3.38144 13.9328V6.74374H1.88144V13.9328H3.38144ZM3.38144 21.1218V18.3566H1.88144V21.1218H3.38144Z" fill="#53FC18"/>
</svg>