<svg xmlns="http://www.w3.org/2000/svg" width="23" height="24" viewBox="0 0 23 24" fill="none">
  <path d="M12.5 4H8.5C4.72876 4 2.84315 4 1.67157 5.17157C0.828032 6.01511 0.591847 7.22882 0.525716 9.25H20.4743C20.4082 7.22882 20.172 6.01511 19.3284 5.17157C18.1569 4 16.2712 4 12.5 4Z" fill="white"/>
  <path d="M8.5 20H12.5C16.2712 20 18.1569 20 19.3284 18.8284C20.5 17.6569 20.5 15.7712 20.5 12C20.5 11.5581 20.5 11.142 20.4981 10.75H0.501885C0.5 11.142 0.5 11.5581 0.5 12C0.5 15.7712 0.5 17.6569 1.67157 18.8284C2.84315 20 4.72876 20 8.5 20Z" fill="white"/>
  <path fill-rule="evenodd" clip-rule="evenodd" d="M3.75 16C3.75 15.5858 4.08579 15.25 4.5 15.25H8.5C8.91421 15.25 9.25 15.5858 9.25 16C9.25 16.4142 8.91421 16.75 8.5 16.75H4.5C4.08579 16.75 3.75 16.4142 3.75 16Z" fill="#151819"/>
  <path fill-rule="evenodd" clip-rule="evenodd" d="M10.25 16C10.25 15.5858 10.5858 15.25 11 15.25H12.5C12.9142 15.25 13.25 15.5858 13.25 16C13.25 16.4142 12.9142 16.75 12.5 16.75H11C10.5858 16.75 10.25 16.4142 10.25 16Z" fill="#151819"/>
</svg>