<svg xmlns="http://www.w3.org/2000/svg" width="40" height="40" viewBox="0 0 40 40" fill="none">
  <rect width="40" height="40" rx="10" fill="#151819"/>
  <path d="M16.9247 22.086C15.8847 22.086 15.0367 21.141 15.0367 19.984C15.0367 18.828 15.8637 17.884 16.9257 17.884C17.9757 17.884 18.8357 18.828 18.8147 19.984C18.8147 21.141 17.9757 22.086 16.9247 22.086ZM23.8987 22.086C22.8587 22.086 22.0087 21.141 22.0087 19.984C22.0087 18.828 22.8377 17.884 23.8987 17.884C24.9487 17.884 25.8087 18.828 25.7887 19.984C25.7887 21.141 24.9597 22.086 23.8987 22.086ZM18.5297 12.563L18.2217 12L17.5877 12.105C16.1509 12.3446 14.7526 12.775 13.4297 13.385L13.2017 13.491L13.0597 13.7C10.4467 17.554 9.72975 21.348 10.0847 25.076L10.1237 25.482L10.4537 25.722C11.9909 26.8499 13.7078 27.7097 15.5317 28.265L16.3217 28.507L17.4347 25.79C19.3447 26.262 21.4647 26.263 23.3737 25.79L24.4807 28.508L25.2707 28.265C27.0961 27.7112 28.8139 26.8509 30.3507 25.721L30.6777 25.483L30.7177 25.081C31.1537 20.761 30.0207 16.997 27.7597 13.696L27.6177 13.489L27.3897 13.385C26.0673 12.7778 24.6706 12.3475 23.2357 12.105L22.6177 12.002L22.3037 12.543C22.2108 12.7048 22.123 12.8695 22.0407 13.037C20.956 12.9249 19.8625 12.9249 18.7777 13.037C18.6981 12.8774 18.6154 12.7194 18.5297 12.563ZM15.1197 24.85C15.3167 24.964 15.5247 25.076 15.7297 25.178L15.2807 26.274C14.0663 25.8313 12.9142 25.2337 11.8527 24.496C11.6277 21.357 12.2657 18.191 14.4167 14.926C15.3245 14.5262 16.2708 14.2203 17.2407 14.013C17.3007 14.138 17.3567 14.26 17.4027 14.369L17.6757 15.012L18.3677 14.911C19.7238 14.7123 21.1017 14.7123 22.4577 14.911L23.1477 15.011L23.4197 14.369C23.4667 14.257 23.5217 14.135 23.5797 14.013C24.5567 14.223 25.5027 14.532 26.4077 14.928C28.2827 17.748 29.2287 20.894 28.9537 24.495C27.8924 25.234 26.7394 25.8316 25.5237 26.273L25.0787 25.179C25.2847 25.076 25.4927 24.964 25.6917 24.85C26.1817 24.568 26.7087 24.216 27.0447 23.88L25.7647 22.6C25.6017 22.764 25.2417 23.02 24.7877 23.282C24.3437 23.538 23.9027 23.745 23.6207 23.838C21.6177 24.501 19.1927 24.501 17.1887 23.838C16.9077 23.745 16.4667 23.538 16.0227 23.282C15.5687 23.021 15.2087 22.764 15.0447 22.6L13.7647 23.88C14.1017 24.216 14.6297 24.568 15.1197 24.85Z" fill="white"/>
</svg>