<svg xmlns="http://www.w3.org/2000/svg" width="30" height="32" viewBox="0 0 30 32" fill="none">
  <path d="M26.529 10.4604C25.6717 7.6431 24.3003 6.11939 22.6377 5.50758C22.1641 5.33329 21.6565 5.30042 21.1539 5.30042H20.3924C19.3013 5.30042 18.237 5.65162 17.3464 6.30561L16.7224 6.76381C16.2377 7.11969 15.6586 7.3108 15.0648 7.3108C14.471 7.3108 13.8919 7.11969 13.4073 6.76382L12.7832 6.30561C11.8926 5.65162 10.8283 5.30042 9.73714 5.30042H8.97564C8.47309 5.30042 7.96545 5.33329 7.49181 5.50758C4.52933 6.59772 2.49155 10.583 2.63894 19.6228C2.66864 21.4442 3.07941 23.4572 4.66333 24.2431C5.15691 24.488 5.73563 24.6504 6.39465 24.6504C7.18543 24.6504 7.81341 24.4165 8.2981 24.0869C9.43438 23.3142 10.267 22.0239 11.4731 21.375C12.1991 20.9843 13.005 20.7804 13.8229 20.7804H16.3067C17.1245 20.7804 17.9304 20.9843 18.6565 21.375C19.8625 22.0239 20.6952 23.3142 21.8314 24.0869C22.3161 24.4165 22.9441 24.6504 23.7349 24.6504C24.3939 24.6504 24.9726 24.488 25.4662 24.2431C27.0501 23.4572 27.4609 21.4442 27.4906 19.6228C27.5145 18.1592 27.481 16.8282 27.3957 15.6204" stroke="#53FC18" stroke-width="1.5" stroke-linecap="round"/>
  <path d="M9.46977 11.7504V15.6204M7.60477 13.6854L11.3348 13.6854" stroke="#53FC18" stroke-width="1.5" stroke-linecap="round"/>
  <path d="M23.7681 13.3628C23.7681 13.8972 23.3506 14.3303 22.8356 14.3303C22.3206 14.3303 21.9031 13.8972 21.9031 13.3628C21.9031 12.8285 22.3206 12.3953 22.8356 12.3953C23.3506 12.3953 23.7681 12.8285 23.7681 13.3628Z" fill="#53FC18"/>
  <path d="M20.0381 13.3628C20.0381 13.8972 19.6206 14.3303 19.1056 14.3303C18.5906 14.3303 18.1731 13.8972 18.1731 13.3628C18.1731 12.8285 18.5906 12.3953 19.1056 12.3953C19.6206 12.3953 20.0381 12.8285 20.0381 13.3628Z" fill="#53FC18"/>
  <path d="M20.9706 10.4603C21.4856 10.4603 21.9031 10.8935 21.9031 11.4278C21.9031 11.9622 21.4856 12.3953 20.9706 12.3953C20.4556 12.3953 20.0381 11.9622 20.0381 11.4278C20.0381 10.8935 20.4556 10.4603 20.9706 10.4603Z" fill="#53FC18"/>
  <path d="M20.9706 14.3303C21.4856 14.3303 21.9031 14.7635 21.9031 15.2978C21.9031 15.8322 21.4856 16.2653 20.9706 16.2653C20.4556 16.2653 20.0381 15.8322 20.0381 15.2978C20.0381 14.7635 20.4556 14.3303 20.9706 14.3303Z" fill="#53FC18"/>
</svg>