<svg width="30" height="32" viewBox="0 0 30 32" fill="none" xmlns="http://www.w3.org/2000/svg">
<g id="icons8:services">
<path id="Vector" d="M20.0487 3.39679V4.75709C19.2842 4.89331 18.5582 5.20321 17.9226 5.66461L16.9603 4.72613L15.6781 6.14836L16.6106 7.05491C16.184 7.69993 15.8956 8.43233 15.7648 9.20276H14.4537V11.1378H15.7648C15.901 11.9408 16.2068 12.6722 16.6395 13.3146L15.6483 14.3112L16.9911 15.7044L17.9515 14.6749C18.5707 15.1239 19.2757 15.4412 20.0497 15.5825V16.9418H21.9147V15.5815C22.6572 15.4461 23.3631 15.1472 23.9848 14.7049L24.8576 15.6724L26.2284 14.3411L25.3239 13.3446C25.7622 12.6964 26.0606 11.9466 26.1986 11.1368H27.5087V9.20179H26.1976C26.0634 8.41841 25.7648 7.67524 25.323 7.02491L26.1976 6.1174L24.8856 4.75709L24.0119 5.66461C23.3851 5.20618 22.6688 4.89636 21.9137 4.75709V3.39679H20.0487ZM20.9812 6.60212C21.4336 6.59903 21.8821 6.68919 22.3006 6.86735C22.7191 7.04551 23.0994 7.30814 23.4193 7.63998C23.7392 7.97183 23.9925 8.36629 24.1643 8.80048C24.3361 9.23466 24.4231 9.69993 24.4203 10.1693C24.4203 12.1575 22.8975 13.7374 20.9812 13.7374C19.065 13.7374 17.5422 12.1575 17.5422 10.1693C17.5422 8.18108 19.065 6.60115 20.9812 6.60115V6.60212ZM8.88671 12.3152L7.16905 13.0408L7.83858 14.792C6.94732 15.3454 6.1976 16.1133 5.6528 17.0308L3.99295 16.3342L3.29358 18.1192L4.95343 18.8139C4.82243 19.3373 4.75415 19.8754 4.75014 20.4161C4.75014 20.9676 4.82941 21.5055 4.95343 22.0183L3.29358 22.7149L3.99295 24.498L5.6528 23.8014C6.19263 24.7309 6.94293 25.5097 7.83858 26.0702L7.16718 27.7923L8.88765 28.5179L9.55905 26.7958C10.0634 26.932 10.5821 27.0029 11.1033 27.0067C11.6348 27.0067 12.1551 26.9245 12.6475 26.7958L13.3189 28.5179L15.0375 27.7923L14.3661 26.0702C15.251 25.5057 15.9913 24.7277 16.5239 23.8023L18.2117 24.497L18.9111 22.7139L17.2233 22.0173C17.3445 21.5045 17.4265 20.9656 17.4265 20.4151C17.4265 19.8636 17.3454 19.3238 17.2214 18.812L18.912 18.1173L18.2126 16.3323L16.5248 17.0289C15.9892 16.1137 15.2491 15.3458 14.367 14.7901L15.0384 13.0389L13.318 12.3133L12.6494 14.0644C12.1445 13.9294 11.6256 13.8589 11.1042 13.8545C10.5727 13.8545 10.0542 13.9377 9.55998 14.0654L8.88858 12.3142L8.88671 12.3152ZM11.1023 15.7905C13.5856 15.7905 15.5597 17.8416 15.5597 20.417C15.5616 22.9935 13.5856 25.0727 11.1023 25.0727C10.5129 25.0734 9.92903 24.9535 9.38429 24.7198C8.83955 24.4861 8.34459 24.1432 7.92777 23.7108C7.51095 23.2783 7.18045 22.7648 6.95521 22.1996C6.72997 21.6344 6.61441 21.0286 6.61514 20.417C6.61514 17.8406 8.62002 15.7905 11.1023 15.7905Z" fill="#53FC18"/>
</g>
</svg>
