<svg width="49" height="48" viewBox="0 0 49 48" fill="none" xmlns="http://www.w3.org/2000/svg">
<g id="Group 138">
<g id="Group 136">
<rect id="Rectangle 501" x="0.451416" width="48" height="48" rx="8.32639" fill="#1B1F20"/>
<g id="Icon/wallet">
<path id="Vector" d="M23.94 14.2098L21.53 19.8198H19.12C18.72 19.8198 18.33 19.8498 17.95 19.9298L18.95 17.5298L18.99 17.4398L19.05 17.2798C19.08 17.2098 19.1 17.1498 19.13 17.0998C20.29 14.4098 21.59 13.5698 23.94 14.2098Z" fill="#53FC18"/>
<path id="Vector_2" d="M30.7308 20.09L30.7108 20.08C30.1108 19.91 29.5008 19.82 28.8808 19.82H22.6208L24.8708 14.59L24.9008 14.52C25.0408 14.57 25.1908 14.64 25.3408 14.69L27.5508 15.62C28.7808 16.13 29.6408 16.66 30.1708 17.3C30.2608 17.42 30.3408 17.53 30.4208 17.66C30.5108 17.8 30.5808 17.94 30.6208 18.09C30.6608 18.18 30.6908 18.26 30.7108 18.35C30.8608 18.86 30.8708 19.44 30.7308 20.09Z" fill="#53FC18"/>
<path id="Vector_3" d="M24.5201 29.6601H24.7701C25.0701 29.6601 25.3201 29.3901 25.3201 29.0601C25.3201 28.6401 25.2001 28.5801 24.9401 28.4801L24.5201 28.3301V29.6601Z" fill="#53FC18"/>
<path id="Vector_4" d="M30.291 21.5198C29.841 21.3898 29.371 21.3198 28.881 21.3198H19.121C18.441 21.3198 17.801 21.4498 17.201 21.7098C15.461 22.4598 14.241 24.1898 14.241 26.1998V28.1498C14.241 28.3898 14.261 28.6198 14.291 28.8598C14.511 32.0398 16.211 33.7398 19.391 33.9498C19.621 33.9798 19.851 33.9998 20.101 33.9998H27.901C31.601 33.9998 33.551 32.2398 33.741 28.7398C33.751 28.5498 33.761 28.3498 33.761 28.1498V26.1998C33.761 23.9898 32.291 22.1298 30.291 21.5198ZM25.281 27.4998C25.741 27.6598 26.361 27.9998 26.361 29.0598C26.361 29.9698 25.651 30.6998 24.771 30.6998H24.521V30.9198C24.521 31.2098 24.291 31.4398 24.001 31.4398C23.711 31.4398 23.481 31.2098 23.481 30.9198V30.6998H23.391C22.431 30.6998 21.641 29.8898 21.641 28.8898C21.641 28.5998 21.871 28.3698 22.161 28.3698C22.451 28.3698 22.681 28.5998 22.681 28.8898C22.681 29.3098 23.001 29.6598 23.391 29.6598H23.481V27.9698L22.721 27.6998C22.261 27.5398 21.641 27.1998 21.641 26.1398C21.641 25.2298 22.351 24.4998 23.231 24.4998H23.481V24.2798C23.481 23.9898 23.711 23.7598 24.001 23.7598C24.291 23.7598 24.521 23.9898 24.521 24.2798V24.4998H24.611C25.571 24.4998 26.361 25.3098 26.361 26.3098C26.361 26.5998 26.131 26.8298 25.841 26.8298C25.551 26.8298 25.321 26.5998 25.321 26.3098C25.321 25.8898 25.001 25.5398 24.611 25.5398H24.521V27.2298L25.281 27.4998Z" fill="#53FC18"/>
<path id="Vector_5" d="M22.6802 26.14C22.6802 26.56 22.8002 26.62 23.0602 26.72L23.4802 26.87V25.54H23.2302C22.9202 25.54 22.6802 25.81 22.6802 26.14Z" fill="#53FC18"/>
</g>
</g>
</g>
</svg>
