<svg xmlns="http://www.w3.org/2000/svg" width="20" height="20" viewBox="0 0 20 20" fill="none">
  <path d="M16.5833 1.92262C16.4492 1.5813 15.9679 1.5813 15.8338 1.92262L15.4752 2.83535C15.4342 2.93956 15.352 3.02205 15.2482 3.06315L14.3388 3.42313C13.9988 3.55774 13.9988 4.0408 14.3388 4.17541L15.2482 4.53539C15.352 4.57649 15.4342 4.65898 15.4752 4.76318L15.8338 5.67592C15.9679 6.01724 16.4492 6.01724 16.5833 5.67592L16.942 4.76318C16.9829 4.65898 17.0651 4.57649 17.1689 4.53539L18.0783 4.17541C18.4184 4.0408 18.4184 3.55774 18.0783 3.42313L17.1689 3.06315C17.0651 3.02205 16.9829 2.93956 16.942 2.83535L16.5833 1.92262Z" fill="white"/>
  <path d="M13.3605 6.77469C13.2264 6.43336 12.7452 6.43336 12.611 6.77469L12.4803 7.10747C12.4393 7.21168 12.3571 7.29417 12.2533 7.33527L11.9218 7.46652C11.5817 7.60113 11.5817 8.08419 11.9218 8.2188L12.2533 8.35005C12.3571 8.39115 12.4393 8.47364 12.4803 8.57785L12.611 8.91063C12.7452 9.25196 13.2264 9.25196 13.3605 8.91063L13.4913 8.57785C13.5323 8.47364 13.6144 8.39115 13.7183 8.35005L14.0498 8.2188C14.3899 8.08419 14.3899 7.60113 14.0498 7.46652L13.7183 7.33527C13.6144 7.29417 13.5323 7.21168 13.4913 7.10747L13.3605 6.77469Z" fill="white"/>
  <path opacity="0.5" d="M10.0001 18.3333C14.6025 18.3333 18.3334 14.6023 18.3334 9.99996C18.3334 9.61438 17.7555 9.55066 17.5561 9.88066C16.6075 11.4505 14.8847 12.5 12.9167 12.5C9.92521 12.5 7.50008 10.0748 7.50008 7.08329C7.50008 5.11534 8.54956 3.3925 10.1194 2.44393C10.4494 2.24452 10.3857 1.66663 10.0001 1.66663C5.39771 1.66663 1.66675 5.39759 1.66675 9.99996C1.66675 14.6023 5.39771 18.3333 10.0001 18.3333Z" fill="white"/>
</svg>