<svg width="24" height="24" viewBox="0 0 24 24" fill="none" xmlns="http://www.w3.org/2000/svg">
<g id="paypal 1" clip-path="url(#clip0_4001_7)">
<g id="Group">
<path id="Vector" d="M22.011 11.414C21.14 15.83 18.196 17.362 14.442 17.362H13.872C13.391 17.362 13.001 17.692 12.941 18.143L12.881 18.383L12.16 23.009L12.13 23.219C12.039 23.67 11.648 24 11.198 24H7.233C6.903 23.97 6.693 23.67 6.753 23.369L7.053 21.327H2.367C2.007 21.297 1.766 20.967 1.827 20.606L4.95 0.901C5.04 0.39 5.49 0 6.001 0H13.45C16.033 0 18.046 0.54 19.127 1.802C20.148 2.973 20.448 4.235 20.148 6.097C19.908 5.977 19.637 5.857 19.337 5.767C18.947 5.647 18.556 5.557 18.166 5.497C17.596 5.407 16.935 5.347 16.244 5.347H10.417C9.936 5.347 9.546 5.677 9.486 6.128L8.225 13.998L8.185 14.246C8.282 13.742 8.711 13.338 9.246 13.338H11.439C15.735 13.338 19.099 11.596 20.06 6.549C20.09 6.399 20.12 6.249 20.15 6.099C20.57 6.309 20.931 6.58 21.231 6.94C22.191 8.02 22.371 9.582 22.011 11.414Z" fill="white"/>
</g>
</g>
<defs>
<clipPath id="clip0_4001_7">
<rect width="24" height="24" fill="white"/>
</clipPath>
</defs>
</svg>
