<svg width="49" height="48" viewBox="0 0 49 48" fill="none" xmlns="http://www.w3.org/2000/svg">
<g id="Group 140">
<g id="Group 136">
<rect id="Rectangle 501" x="0.460449" width="48" height="48" rx="8.32639" fill="#1B1F20"/>
<g id="Icon/dollar-circle">
<path id="Vector" d="M24.7495 27.9203H25.3995C26.0495 27.9203 26.5895 27.3403 26.5895 26.6403C26.5895 25.7703 26.2795 25.6003 25.7695 25.4203L24.7595 25.0703V27.9203H24.7495Z" fill="#53FC18"/>
<path id="Vector_2" d="M23.9697 13.8999C18.4497 13.9199 13.9797 18.4099 13.9997 23.9299C14.0197 29.4499 18.5097 33.9199 24.0297 33.8999C29.5497 33.8799 34.0197 29.3899 33.9997 23.8699C33.9797 18.3499 29.4897 13.8899 23.9697 13.8999ZM26.2597 23.9999C27.0397 24.2699 28.0897 24.8499 28.0897 26.6399C28.0897 28.1799 26.8797 29.4199 25.3997 29.4199H24.7497V29.9999C24.7497 30.4099 24.4097 30.7499 23.9997 30.7499C23.5897 30.7499 23.2497 30.4099 23.2497 29.9999V29.4199H22.8897C21.2497 29.4199 19.9197 28.0399 19.9197 26.3399C19.9197 25.9299 20.2597 25.5899 20.6697 25.5899C21.0797 25.5899 21.4197 25.9299 21.4197 26.3399C21.4197 27.2099 22.0797 27.9199 22.8897 27.9199H23.2497V24.5399L21.7397 23.9999C20.9597 23.7299 19.9097 23.1499 19.9097 21.3599C19.9097 19.8199 21.1197 18.5799 22.5997 18.5799H23.2497V17.9999C23.2497 17.5899 23.5897 17.2499 23.9997 17.2499C24.4097 17.2499 24.7497 17.5899 24.7497 17.9999V18.5799H25.1097C26.7497 18.5799 28.0797 19.9599 28.0797 21.6599C28.0797 22.0699 27.7397 22.4099 27.3297 22.4099C26.9197 22.4099 26.5797 22.0699 26.5797 21.6599C26.5797 20.7899 25.9197 20.0799 25.1097 20.0799H24.7497V23.4599L26.2597 23.9999Z" fill="#53FC18"/>
<path id="Vector_3" d="M21.4189 21.3701C21.4189 22.2401 21.7289 22.4101 22.2389 22.5901L23.2489 22.9401V20.0801H22.5989C21.9489 20.0801 21.4189 20.6601 21.4189 21.3701Z" fill="#53FC18"/>
</g>
</g>
</g>
</svg>
