<svg width="20" height="20" viewBox="0 0 20 20" fill="none" xmlns="http://www.w3.org/2000/svg">
<g id="fi-rr-bell-ring" clip-path="url(#clip0_2002_666)">
<path id="Vector" d="M17.3825 12.776L14.2392 17.9052C13.894 18.4718 13.4241 18.9523 12.8652 19.31C12.3064 19.6677 11.6733 19.8932 11.0142 19.9693C10.8405 19.9899 10.6657 20.0002 10.4908 20.0002C9.5954 19.9989 8.72221 19.721 7.99084 19.2043C7.23506 19.7706 6.30145 20.0473 5.35918 19.9845C4.41691 19.9217 3.52831 19.5234 2.85438 18.8619C2.18045 18.2004 1.76577 17.3193 1.68547 16.3784C1.60518 15.4374 1.86458 14.4988 2.41668 13.7327L1.32084 12.6385C0.852922 12.1706 0.496939 11.6028 0.279552 10.9778C0.0621649 10.3527 -0.0109912 9.68662 0.0655621 9.0293C0.142115 8.37198 0.366394 7.74051 0.721602 7.18216C1.07681 6.62381 1.55374 6.15306 2.11668 5.80517L6.92251 2.8335C8.22435 1.99915 9.75531 1.59463 11.2994 1.67701C12.8434 1.7594 14.3227 2.32453 15.5283 3.29267L16.9108 1.91017C16.9877 1.83058 17.0797 1.76709 17.1813 1.72342C17.283 1.67974 17.3924 1.65676 17.503 1.65579C17.6137 1.65483 17.7234 1.67592 17.8258 1.71782C17.9282 1.75972 18.0213 1.8216 18.0995 1.89984C18.1777 1.97808 18.2396 2.07113 18.2815 2.17354C18.3234 2.27596 18.3445 2.38569 18.3436 2.49634C18.3426 2.60699 18.3196 2.71634 18.2759 2.81801C18.2323 2.91968 18.1688 3.01163 18.0892 3.0885L16.7083 4.47017C17.6345 5.63037 18.1933 7.04052 18.3134 8.52017C18.4335 9.99981 18.1094 11.4816 17.3825 12.776ZM6.72084 18.0393L3.62168 14.9393C3.37949 15.3725 3.28608 15.8731 3.35577 16.3644C3.42547 16.8557 3.65442 17.3106 4.00751 17.6593C4.36369 17.9977 4.81674 18.2162 5.30325 18.2843C5.78977 18.3525 6.28542 18.2668 6.72084 18.0393ZM14.9883 5.03934C14.063 4.10504 12.8448 3.51686 11.5377 3.3732C10.2305 3.22955 8.91371 3.53914 7.80751 4.25017L2.99334 7.22184C2.64421 7.43764 2.34842 7.72964 2.12814 8.07596C1.90785 8.42229 1.76878 8.81396 1.72132 9.22165C1.67387 9.62935 1.71926 10.0425 1.85412 10.4302C1.98897 10.8178 2.20978 11.1699 2.50001 11.4602L8.57501 17.536C8.86571 17.827 9.21861 18.0484 9.60717 18.1833C9.99573 18.3183 10.4098 18.3634 10.8184 18.3153C11.2269 18.2672 11.6192 18.1271 11.9657 17.9055C12.3123 17.6839 12.6041 17.3866 12.8192 17.036L15.9483 11.9318C16.5595 10.8341 16.7964 9.56715 16.6232 8.32275C16.45 7.07835 15.8761 5.92425 14.9883 5.03517V5.03934ZM16.0542 20.0002C15.8782 20.0005 15.7066 19.9451 15.5641 19.8419C15.4215 19.7387 15.3153 19.593 15.2606 19.4258C15.2059 19.2585 15.2056 19.0782 15.2597 18.9107C15.3138 18.7432 15.4195 18.5972 15.5617 18.4935C17.0208 17.3965 18.0084 15.7857 18.3242 13.9877C18.3463 13.8794 18.3898 13.7767 18.452 13.6854C18.5142 13.5941 18.594 13.5161 18.6866 13.4559C18.7793 13.3957 18.8829 13.3545 18.9916 13.3348C19.1003 13.315 19.2119 13.3171 19.3198 13.3408C19.4277 13.3646 19.5298 13.4096 19.6201 13.4732C19.7105 13.5367 19.7873 13.6176 19.8461 13.7112C19.9049 13.8047 19.9445 13.909 19.9626 14.018C19.9808 14.127 19.977 14.2385 19.9517 14.346C19.5434 16.539 18.3278 18.4994 16.545 19.8402C16.4025 19.9441 16.2306 20.0001 16.0542 20.0002ZM0.833342 4.78267C0.679428 4.78198 0.52871 4.73868 0.397901 4.65757C0.267092 4.57646 0.161303 4.46071 0.0922624 4.32314C0.0232221 4.18558 -0.00637134 4.03158 0.00676341 3.87823C0.0198982 3.72488 0.0752479 3.57816 0.166675 3.45434C1.52583 1.63816 3.52652 0.408772 5.76084 0.0168366C5.97744 -0.0273661 6.20272 0.016283 6.38713 0.138182C6.57154 0.26008 6.69997 0.450243 6.74418 0.666837C6.78838 0.88343 6.74473 1.10871 6.62283 1.29312C6.50093 1.47753 6.31077 1.60597 6.09418 1.65017C4.25916 1.95319 2.6127 2.95486 1.50001 4.44517C1.42282 4.54943 1.32236 4.63424 1.20662 4.69283C1.09089 4.75142 0.963066 4.78219 0.833342 4.78267Z" fill="white"/>
</g>
<defs>
<clipPath id="clip0_2002_666">
<rect width="20" height="20" fill="white"/>
</clipPath>
</defs>
</svg>
