<svg xmlns="http://www.w3.org/2000/svg" width="24" height="24" viewBox="0 0 24 24" fill="none">
  <path d="M18.9375 13.4456C18.2438 11.9456 16.5281 11.3531 16.5281 11.3531C16.5281 11.3531 18.69 10.2431 18.2156 8.06434C17.91 6.64309 16.6219 5.21434 14.2238 5.17871V3.11621H12.0881V5.17871H10.5338V3.11621H8.4V5.17871H5.72063V7.12496H6.95813C7.02461 7.12496 7.09044 7.13806 7.15186 7.1635C7.21328 7.18894 7.26909 7.22623 7.3161 7.27324C7.36311 7.32025 7.4004 7.37606 7.42584 7.43748C7.45128 7.4989 7.46438 7.56473 7.46438 7.63121V16.0312C7.46438 16.1804 7.40511 16.3235 7.29962 16.429C7.19414 16.5344 7.05106 16.5937 6.90188 16.5937H6.165L5.72063 18.6881H8.4V20.8912H10.5338V18.6881H12.0881V20.8912H14.2219V18.6881H14.6344C18.765 18.6881 19.875 15.51 18.9375 13.4456ZM12.7069 7.12496C13.7925 7.12496 14.7994 7.82434 14.8275 8.89684C14.8556 9.96934 13.9669 10.8956 12.7875 10.9106C11.7019 10.9237 10.5375 10.9106 10.5375 10.9106V7.12496C10.5375 7.12496 11.5688 7.12496 12.7069 7.12496ZM13.3444 16.5881C12.2194 16.6087 10.5319 16.5881 10.5319 16.5881V12.6506C10.5319 12.6506 12.09 12.6731 13.2525 12.6506C14.6513 12.6281 15.6806 13.2806 15.69 14.5125C15.6994 15.7443 14.8613 16.5637 13.3444 16.5918V16.5881Z" fill="black"/>
</svg>