<svg xmlns="http://www.w3.org/2000/svg" width="49" height="48" viewBox="0 0 49 48" fill="none">
  <rect x="0.44165" width="48" height="48" rx="8.32639" fill="#D1CFCF"/>
  <path d="M34.0003 19.5499C34.0003 20.2099 33.4603 20.7499 32.8003 20.7499H15.2003C14.5403 20.7499 14.0003 20.2099 14.0003 19.5499V19.5399C14.0003 17.2499 15.8503 15.3999 18.1403 15.3999H29.8503C32.1403 15.3999 34.0003 17.2599 34.0003 19.5499Z" fill="#282C35"/>
  <path d="M14.0003 23.45V28.46C14.0003 30.75 15.8503 32.6 18.1403 32.6H29.8503C32.1403 32.6 34.0003 30.74 34.0003 28.45V23.45C34.0003 22.79 33.4603 22.25 32.8003 22.25H15.2003C14.5403 22.25 14.0003 22.79 14.0003 23.45ZM20.0003 29.25H18.0003C17.5903 29.25 17.2503 28.91 17.2503 28.5C17.2503 28.09 17.5903 27.75 18.0003 27.75H20.0003C20.4103 27.75 20.7503 28.09 20.7503 28.5C20.7503 28.91 20.4103 29.25 20.0003 29.25ZM26.5003 29.25H22.5003C22.0903 29.25 21.7503 28.91 21.7503 28.5C21.7503 28.09 22.0903 27.75 22.5003 27.75H26.5003C26.9103 27.75 27.2503 28.09 27.2503 28.5C27.2503 28.91 26.9103 29.25 26.5003 29.25Z" fill="#282C35"/>
</svg>