<svg xmlns="http://www.w3.org/2000/svg" width="30" height="32" viewBox="0 0 30 32" fill="none">
  <path d="M26.529 10.4603C25.6717 7.64297 24.3003 6.11927 22.6377 5.50746C22.1641 5.33317 21.6565 5.30029 21.1539 5.30029H20.3924C19.3013 5.30029 18.237 5.6515 17.3464 6.30549L16.7224 6.76368C16.2377 7.11957 15.6586 7.31068 15.0648 7.31068C14.471 7.31068 13.8919 7.11957 13.4073 6.7637L12.7832 6.30549C11.8926 5.6515 10.8283 5.30029 9.73714 5.30029H8.97564C8.47309 5.30029 7.96545 5.33317 7.49181 5.50746C4.52933 6.5976 2.49155 10.5829 2.63894 19.6227C2.66864 21.444 3.07941 23.457 4.66333 24.243C5.15691 24.4879 5.73563 24.6503 6.39465 24.6503C7.18543 24.6503 7.81341 24.4164 8.2981 24.0868C9.43438 23.3141 10.267 22.0237 11.4731 21.3748C12.1991 20.9842 13.005 20.7803 13.8229 20.7803H16.3067C17.1245 20.7803 17.9304 20.9842 18.6565 21.3748C19.8625 22.0237 20.6952 23.3141 21.8314 24.0868C22.3161 24.4164 22.9441 24.6503 23.7349 24.6503C24.3939 24.6503 24.9726 24.4879 25.4662 24.243C27.0501 23.457 27.4609 21.444 27.4906 19.6227C27.5145 18.1591 27.481 16.828 27.3957 15.6203" stroke="#282C35" stroke-width="1.5" stroke-linecap="round"/>
  <path d="M9.46977 11.7505V15.6205M7.60477 13.6855L11.3348 13.6855" stroke="#282C35" stroke-width="1.5" stroke-linecap="round"/>
  <path d="M23.7681 13.3629C23.7681 13.8973 23.3506 14.3304 22.8356 14.3304C22.3206 14.3304 21.9031 13.8973 21.9031 13.3629C21.9031 12.8286 22.3206 12.3954 22.8356 12.3954C23.3506 12.3954 23.7681 12.8286 23.7681 13.3629Z" fill="#282C35"/>
  <path d="M20.0381 13.3629C20.0381 13.8973 19.6206 14.3304 19.1056 14.3304C18.5906 14.3304 18.1731 13.8973 18.1731 13.3629C18.1731 12.8286 18.5906 12.3954 19.1056 12.3954C19.6206 12.3954 20.0381 12.8286 20.0381 13.3629Z" fill="#282C35"/>
  <path d="M20.9706 10.4604C21.4856 10.4604 21.9031 10.8936 21.9031 11.4279C21.9031 11.9623 21.4856 12.3954 20.9706 12.3954C20.4556 12.3954 20.0381 11.9623 20.0381 11.4279C20.0381 10.8936 20.4556 10.4604 20.9706 10.4604Z" fill="#282C35"/>
  <path d="M20.9706 14.3304C21.4856 14.3304 21.9031 14.7636 21.9031 15.2979C21.9031 15.8323 21.4856 16.2654 20.9706 16.2654C20.4556 16.2654 20.0381 15.8323 20.0381 15.2979C20.0381 14.7636 20.4556 14.3304 20.9706 14.3304Z" fill="#282C35"/>
</svg>