<svg xmlns="http://www.w3.org/2000/svg" width="30" height="32" viewBox="0 0 30 32" fill="none">
  <path d="M27.3533 16.177H2.48666" stroke="#282C35" stroke-width="1.5" stroke-linecap="round"/>
  <path d="M14.92 3.2771V29.0771" stroke="#282C35" stroke-width="1.5" stroke-linecap="round"/>
  <path d="M16.1633 16.177C16.1633 19.0268 18.39 21.337 21.1367 21.337" stroke="#282C35" stroke-width="1.5" stroke-linecap="round"/>
  <path d="M13.6767 16.177C13.6767 19.0268 11.45 21.337 8.70334 21.337" stroke="#282C35" stroke-width="1.5" stroke-linecap="round"/>
  <path d="M14.92 13.6423C14.92 11.7203 16.1807 10.045 17.9778 9.57885C19.9718 9.06165 21.778 10.9356 21.2795 13.0044C20.8302 14.869 19.2155 16.177 17.363 16.177H14.92V13.6423Z" stroke="#282C35" stroke-width="1.5"/>
  <path d="M14.92 13.6423C14.92 11.7203 13.6593 10.045 11.8622 9.57885C9.8682 9.06165 8.06205 10.9356 8.56054 13.0044C9.00982 14.869 10.6245 16.177 12.477 16.177H14.92V13.6423Z" stroke="#282C35" stroke-width="1.5"/>
  <path d="M27.3533 16.1771C27.3533 22.2582 27.3533 25.2988 25.5325 27.1879C23.7117 29.0771 20.7811 29.0771 14.92 29.0771C9.05887 29.0771 6.1283 29.0771 4.30748 27.1879C2.48666 25.2988 2.48666 22.2582 2.48666 16.1771C2.48666 10.096 2.48666 7.05542 4.30748 5.16626C6.1283 3.2771 9.05887 3.2771 14.92 3.2771C20.7811 3.2771 23.7117 3.2771 25.5325 5.16626C26.7432 6.42239 27.1489 8.18755 27.2848 11.0171" stroke="#282C35" stroke-width="1.5" stroke-linecap="round"/>
</svg>