<svg xmlns="http://www.w3.org/2000/svg" width="30" height="32" viewBox="0 0 30 32" fill="none">
  <path d="M20.0487 3.39673V4.75703C19.2842 4.89325 18.5582 5.20315 17.9226 5.66455L16.9603 4.72607L15.6781 6.1483L16.6106 7.05485C16.184 7.69987 15.8956 8.43227 15.7648 9.2027H14.4537V11.1377H15.7648C15.901 11.9407 16.2068 12.6722 16.6395 13.3146L15.6483 14.3111L16.9911 15.7043L17.9515 14.6749C18.5707 15.1238 19.2757 15.4411 20.0497 15.5824V16.9417H21.9147V15.5814C22.6572 15.4461 23.3631 15.1472 23.9848 14.7049L24.8576 15.6724L26.2284 14.3411L25.3239 13.3446C25.7622 12.6963 26.0606 11.9465 26.1986 11.1367H27.5087V9.20173H26.1976C26.0634 8.41835 25.7648 7.67517 25.323 7.02485L26.1976 6.11734L24.8856 4.75703L24.0119 5.66455C23.3851 5.20611 22.6688 4.89629 21.9137 4.75703V3.39673H20.0487ZM20.9812 6.60206C21.4336 6.59897 21.8821 6.68913 22.3006 6.86729C22.7191 7.04545 23.0994 7.30808 23.4193 7.63992C23.7392 7.97177 23.9925 8.36623 24.1643 8.80042C24.3361 9.2346 24.4231 9.69987 24.4203 10.1692C24.4203 12.1574 22.8975 13.7374 20.9812 13.7374C19.065 13.7374 17.5422 12.1574 17.5422 10.1692C17.5422 8.18102 19.065 6.60109 20.9812 6.60109V6.60206ZM8.88671 12.3151L7.16905 13.0408L7.83858 14.7919C6.94732 15.3453 6.1976 16.1132 5.6528 17.0307L3.99295 16.3341L3.29358 18.1192L4.95343 18.8138C4.82243 19.3372 4.75415 19.8753 4.75014 20.416C4.75014 20.9675 4.82941 21.5054 4.95343 22.0182L3.29358 22.7148L3.99295 24.4979L5.6528 23.8013C6.19263 24.7308 6.94293 25.5096 7.83858 26.0701L7.16718 27.7922L8.88765 28.5179L9.55905 26.7957C10.0634 26.932 10.5821 27.0028 11.1033 27.0066C11.6348 27.0066 12.1551 26.9244 12.6475 26.7957L13.3189 28.5179L15.0375 27.7922L14.3661 26.0701C15.251 25.5057 15.9913 24.7276 16.5239 23.8023L18.2117 24.4969L18.9111 22.7138L17.2233 22.0172C17.3445 21.5045 17.4265 20.9656 17.4265 20.4151C17.4265 19.8636 17.3454 19.3237 17.2214 18.8119L18.912 18.1172L18.2126 16.3322L16.5248 17.0288C15.9892 16.1136 15.2491 15.3457 14.367 14.79L15.0384 13.0388L13.318 12.3132L12.6494 14.0644C12.1445 13.9293 11.6256 13.8588 11.1042 13.8544C10.5727 13.8544 10.0542 13.9376 9.55998 14.0654L8.88858 12.3142L8.88671 12.3151ZM11.1023 15.7904C13.5856 15.7904 15.5597 17.8415 15.5597 20.417C15.5616 22.9934 13.5856 25.0726 11.1023 25.0726C10.5129 25.0734 9.92903 24.9535 9.38429 24.7198C8.83955 24.4861 8.34459 24.1432 7.92777 23.7107C7.51095 23.2782 7.18045 22.7647 6.95521 22.1995C6.72997 21.6343 6.61441 21.0286 6.61514 20.417C6.61514 17.8405 8.62002 15.7904 11.1023 15.7904Z" fill="#282C35"/>
</svg>