<svg xmlns="http://www.w3.org/2000/svg" width="20" height="20" viewBox="0 0 20 20" fill="none">
  <path d="M16.5834 1.92274C16.4493 1.58142 15.968 1.58142 15.8339 1.92274L15.4753 2.83548C15.4343 2.93968 15.3521 3.02217 15.2483 3.06327L14.3389 3.42325C13.9989 3.55786 13.9989 4.04092 14.3389 4.17553L15.2483 4.53551C15.3521 4.57661 15.4343 4.6591 15.4753 4.76331L15.8339 5.67604C15.968 6.01736 16.4493 6.01737 16.5834 5.67604L16.9421 4.76331C16.983 4.6591 17.0652 4.57661 17.169 4.53551L18.0784 4.17553C18.4185 4.04092 18.4185 3.55786 18.0784 3.42325L17.169 3.06327C17.0652 3.02217 16.983 2.93968 16.9421 2.83548L16.5834 1.92274Z" fill="black"/>
  <path d="M13.3606 6.77481C13.2265 6.43349 12.7452 6.43349 12.6111 6.77481L12.4804 7.1076C12.4394 7.2118 12.3572 7.29429 12.2534 7.33539L11.9218 7.46664C11.5818 7.60126 11.5818 8.08431 11.9218 8.21892L12.2534 8.35017C12.3572 8.39127 12.4394 8.47376 12.4804 8.57797L12.6111 8.91076C12.7452 9.25208 13.2265 9.25208 13.3606 8.91076L13.4914 8.57797C13.5324 8.47376 13.6145 8.39127 13.7184 8.35017L14.0499 8.21892C14.39 8.08431 14.39 7.60126 14.0499 7.46664L13.7184 7.33539C13.6145 7.29429 13.5324 7.2118 13.4914 7.1076L13.3606 6.77481Z" fill="black"/>
  <path opacity="0.5" d="M9.99999 18.3334C14.6024 18.3334 18.3333 14.6025 18.3333 10.0001C18.3333 9.6145 17.7554 9.55078 17.556 9.88078C16.6074 11.4506 14.8846 12.5001 12.9167 12.5001C9.92511 12.5001 7.49999 10.075 7.49999 7.08342C7.49999 5.11546 8.54947 3.39263 10.1193 2.44405C10.4493 2.24464 10.3856 1.66675 9.99999 1.66675C5.39762 1.66675 1.66666 5.39771 1.66666 10.0001C1.66666 14.6025 5.39762 18.3334 9.99999 18.3334Z" fill="black"/>
</svg>