<svg xmlns="http://www.w3.org/2000/svg" width="40" height="40" viewBox="0 0 40 40" fill="none">
  <rect width="40" height="40" rx="10" fill="#E7E7E7"/>
  <path d="M21.9661 25.2995V23.2552C21.9661 22.8212 21.8403 22.6042 21.5885 22.6042C21.441 22.6042 21.2977 22.6736 21.1589 22.8125V25.7292C21.2977 25.8681 21.441 25.9375 21.5885 25.9375C21.8403 25.9375 21.9661 25.7248 21.9661 25.2995ZM24.362 23.7109H25.2214V23.2682C25.2214 22.8255 25.0781 22.6042 24.7917 22.6042C24.5052 22.6042 24.362 22.8255 24.362 23.2682V23.7109ZM16.9271 20.2474V21.1589H15.8854V26.6667H14.9219V21.1589H13.9062V20.2474H16.9271ZM19.5443 21.888V26.6667H18.6719V26.1458C18.3333 26.5365 18.0035 26.7318 17.6823 26.7318C17.3958 26.7318 17.2135 26.6102 17.1354 26.3672C17.0833 26.2196 17.0573 25.9852 17.0573 25.6641V21.888H17.9167V25.4036C17.9167 25.612 17.921 25.7248 17.9297 25.7422C17.9384 25.8724 18.0035 25.9375 18.125 25.9375C18.2986 25.9375 18.4809 25.803 18.6719 25.5339V21.888H19.5443ZM22.8255 23.3333V25.2344C22.8255 25.6858 22.7951 26.0026 22.7344 26.1849C22.6302 26.5495 22.4002 26.7318 22.0443 26.7318C21.7405 26.7318 21.4453 26.5538 21.1589 26.1979V26.6667H20.2865V20.2474H21.1589V22.3438C21.4366 21.9965 21.7318 21.8229 22.0443 21.8229C22.4002 21.8229 22.6302 22.0052 22.7344 22.3698C22.7951 22.5521 22.8255 22.8733 22.8255 23.3333ZM26.0938 25.013V25.1302C26.0938 25.3819 26.0851 25.5686 26.0677 25.6901C26.0417 25.8811 25.9766 26.0547 25.8724 26.2109C25.638 26.5582 25.2908 26.7318 24.8307 26.7318C24.3793 26.7318 24.0278 26.5668 23.776 26.237C23.5937 26.0026 23.5026 25.6293 23.5026 25.1172V23.4375C23.5026 22.9253 23.5894 22.5521 23.763 22.3177C24.0148 21.9878 24.362 21.8229 24.8047 21.8229C25.2474 21.8229 25.5859 21.9878 25.8203 22.3177C26.0026 22.5694 26.0938 22.9427 26.0938 23.4375V24.4271H24.362V25.2734C24.362 25.7161 24.5095 25.9375 24.8047 25.9375C25.013 25.9375 25.1432 25.8247 25.1953 25.599C25.1953 25.5903 25.1975 25.5599 25.2018 25.5078C25.2062 25.4557 25.2083 25.3841 25.2083 25.293V25.013H26.0938ZM20.2214 14.2839V16.3151C20.2214 16.7578 20.0825 16.9792 19.8047 16.9792C19.5269 16.9792 19.388 16.7578 19.388 16.3151V14.2839C19.388 13.8325 19.5269 13.6068 19.8047 13.6068C20.0825 13.6068 20.2214 13.8325 20.2214 14.2839ZM27.1615 23.5677C27.1615 22.0312 27.079 20.9028 26.9141 20.1823C26.8273 19.8003 26.6406 19.4813 26.3542 19.2253C26.0677 18.9692 25.7378 18.8194 25.3646 18.776C24.184 18.6458 22.3958 18.5807 20 18.5807C17.6128 18.5807 15.829 18.6458 14.6484 18.776C14.2665 18.8194 13.9345 18.9692 13.6523 19.2253C13.3702 19.4813 13.1858 19.8003 13.099 20.1823C12.9253 20.9375 12.8385 22.066 12.8385 23.5677C12.8385 25.0955 12.9253 26.224 13.099 26.9531C13.1858 27.3264 13.3702 27.6432 13.6523 27.9036C13.9345 28.1641 14.2622 28.316 14.6354 28.3594C15.8247 28.4896 17.6128 28.5547 20 28.5547C22.3872 28.5547 24.1753 28.4896 25.3646 28.3594C25.7378 28.316 26.0655 28.1641 26.3477 27.9036C26.6298 27.6432 26.8142 27.3264 26.901 26.9531C27.0747 26.224 27.1615 25.0955 27.1615 23.5677ZM17.3307 15.0911L18.5026 11.237H17.526L16.862 13.776L16.1719 11.237H15.1562C15.217 11.4366 15.3168 11.7361 15.4557 12.1354L15.7682 13.0339C16.072 13.928 16.2717 14.6137 16.3672 15.0911V17.7083H17.3307V15.0911ZM21.0938 16.1458V14.4531C21.0938 13.9497 21.0026 13.572 20.8203 13.3203C20.5686 12.9905 20.23 12.8255 19.8047 12.8255C19.362 12.8255 19.0234 12.9905 18.7891 13.3203C18.6068 13.572 18.5156 13.9497 18.5156 14.4531V16.1458C18.5156 16.6493 18.6068 17.0269 18.7891 17.2786C19.0234 17.6085 19.362 17.7734 19.8047 17.7734C20.23 17.7734 20.5686 17.6085 20.8203 17.2786C21.0026 17.0443 21.0938 16.6667 21.0938 16.1458ZM23.4505 17.7083H24.3229V12.8906H23.4505V16.5755C23.2595 16.8446 23.0773 16.9792 22.9036 16.9792C22.7734 16.9792 22.704 16.9097 22.6953 16.7708C22.6866 16.7535 22.6823 16.6406 22.6823 16.4323V12.8906H21.8099V16.7057C21.8099 17.0269 21.8359 17.2656 21.888 17.4219C21.9835 17.6562 22.1701 17.7734 22.4479 17.7734C22.7604 17.7734 23.0946 17.5781 23.4505 17.1875V17.7083ZM30 13.75V26.25C30 27.283 29.6332 28.1662 28.8997 28.8997C28.1662 29.6332 27.283 30 26.25 30H13.75C12.717 30 11.8338 29.6332 11.1003 28.8997C10.3668 28.1662 10 27.283 10 26.25V13.75C10 12.717 10.3668 11.8338 11.1003 11.1003C11.8338 10.3668 12.717 10 13.75 10H26.25C27.283 10 28.1662 10.3668 28.8997 11.1003C29.6332 11.8338 30 12.717 30 13.75Z" fill="black"/>
</svg>